<svg width="24" height="24" viewBox="0 0 24 24" fill="none" xmlns="http://www.w3.org/2000/svg">
<path fill-rule="evenodd" clip-rule="evenodd" d="M15.3889 3.3058C16.858 1.68681 19.3578 1.55545 20.9884 3.01157C22.4445 4.64223 22.3132 7.14203 20.6942 8.61111L19.038 10.2673C18.9569 10.3486 18.9569 10.4802 19.038 10.5615L19.4806 11.0041C19.6973 11.2134 19.7842 11.5233 19.7079 11.8147C19.6316 12.1062 19.404 12.3337 19.1126 12.41C18.8212 12.4863 18.5113 12.3994 18.302 12.1827L17.8594 11.7401C17.7781 11.6591 17.6465 11.6591 17.5652 11.7401L10.0277 19.2776C9.21859 20.237 8.02281 20.7843 6.76785 20.7696L5.90266 21.6356C5.4133 22.1209 4.62414 22.1209 4.13478 21.6356L2.36606 19.8669C1.87798 19.3787 1.87798 18.5872 2.36606 18.099L3.23125 17.233C3.21629 15.9778 3.76398 14.7818 4.72407 13.9731L12.2607 6.43564C12.3418 6.35432 12.3418 6.22273 12.2607 6.14141L11.8189 5.69881C11.5031 5.37176 11.5076 4.85189 11.8291 4.53038C12.1506 4.20886 12.6705 4.20435 12.9975 4.52023L13.4393 4.96282C13.4786 5.00165 13.5316 5.0235 13.5868 5.02367C13.642 5.0236 13.6949 5.00138 13.7335 4.96199L15.3889 3.3058ZM6.7436 19.0718C7.28622 19.2452 8.05722 18.8918 8.84906 18.0982L16.3857 10.5616C16.4248 10.5227 16.4468 10.4697 16.4468 10.4145C16.4468 10.3593 16.4248 10.3063 16.3857 10.2674L13.7335 7.61514C13.6521 7.53407 13.5205 7.53407 13.4392 7.61514L11.7122 9.34218C11.673 9.38127 11.651 9.43435 11.651 9.48971C11.651 9.54507 11.673 9.59815 11.7122 9.63724L12.8291 10.755C13.0586 11.0013 13.0518 11.3851 12.8138 11.6232C12.5757 11.8613 12.1919 11.868 11.9456 11.6385L10.8278 10.5216C10.7889 10.4825 10.7359 10.4605 10.6807 10.4605C10.6255 10.4605 10.5725 10.4825 10.5336 10.5216L10.0452 11.0092C10.006 11.0483 9.98393 11.1014 9.98393 11.1567C9.98393 11.2121 10.006 11.2652 10.0452 11.3043L11.1621 12.422C11.3916 12.6683 11.3848 13.0522 11.1467 13.2902C10.9087 13.5283 10.5248 13.5351 10.2785 13.3055L9.16079 12.1886C9.12184 12.1495 9.0689 12.1275 9.01368 12.1275C8.95846 12.1275 8.90552 12.1495 8.86656 12.1886L8.37812 12.6762C8.33893 12.7153 8.31691 12.7684 8.31691 12.8238C8.31691 12.8791 8.33893 12.9322 8.37812 12.9713L9.49503 14.089C9.72455 14.3354 9.71778 14.7192 9.47971 14.9572C9.24165 15.1953 8.85782 15.2021 8.61151 14.9726L7.49377 13.8557C7.45482 13.8165 7.40187 13.7945 7.34665 13.7945C7.29143 13.7945 7.23849 13.8165 7.19954 13.8557L5.90259 15.1518C5.11075 15.9428 4.75567 16.7104 4.92904 17.2589C5.02215 17.5552 4.94281 17.8787 4.72317 18.0982L3.98634 18.8359C3.94715 18.875 3.92512 18.9281 3.92512 18.9834C3.92512 19.0388 3.94715 19.0919 3.98634 19.131L4.87153 20.0145C4.91048 20.0536 4.96343 20.0756 5.01865 20.0756C5.07387 20.0756 5.12681 20.0536 5.16576 20.0145L5.90259 19.2777C6.1225 19.0574 6.44681 18.978 6.7436 19.0718Z" fill="black"/>
</svg>
