<svg width="24" height="24" viewBox="0 0 24 24" fill="none" xmlns="http://www.w3.org/2000/svg">
<path fill-rule="evenodd" clip-rule="evenodd" d="M5.49966 3.66649C5.49966 2.74611 6.24577 2 7.16614 2C8.08652 2 8.83263 2.74611 8.83263 3.66649V4.91635C8.83263 5.14645 8.6461 5.33297 8.41601 5.33297H5.91628C5.68618 5.33297 5.49966 5.14645 5.49966 4.91635V3.66649ZM18.8797 2.13785C19.0684 2.00001 19.3183 1.97896 19.5274 2.0833C20.8347 2.73823 21.5396 4.57803 21.5396 5.97455C21.5396 7.24006 20.5137 8.26596 19.2482 8.26596C17.9827 8.26596 16.9568 7.24006 16.9568 5.97455C16.9913 5.21408 17.3704 4.51075 17.9867 4.06392C18.4883 3.59813 18.7258 3.34733 18.6308 2.73823C18.595 2.5073 18.691 2.2757 18.8797 2.13785ZM17.6693 8.91093C18.1543 9.17309 18.697 9.31 19.2483 9.30922C19.7999 9.30898 20.3426 9.17092 20.8273 8.9076C20.8875 8.87674 20.9588 8.87674 21.0189 8.9076C21.0828 8.93649 21.1277 8.99577 21.1381 9.06508C21.2702 9.89877 21.3368 10.7415 21.3372 11.5856C21.2795 14.8441 20.8886 18.0882 20.1707 21.2671C20.0726 21.6959 19.6911 22 19.2512 22C18.8113 22 18.4298 21.6959 18.3317 21.2671C17.6133 18.0883 17.2224 14.8442 17.1652 11.5856C17.1656 10.7415 17.2322 9.89877 17.3643 9.06508C17.3746 8.99825 17.4169 8.94068 17.4777 8.91093C17.5378 8.88008 17.6091 8.88008 17.6693 8.91093ZM11.7491 6.99947C11.519 6.99947 11.3325 7.186 11.3325 7.41609V18.2483C11.3325 18.4784 11.519 18.6649 11.7491 18.6649H14.2489C14.4789 18.6649 14.6655 18.4784 14.6655 18.2483V7.41609C14.6655 7.186 14.4789 6.99947 14.2489 6.99947H11.7491ZM8.41608 6.16625H5.91635C4.3057 6.16625 3 7.47195 3 9.0826V14.2904C3 14.6355 3.27979 14.9153 3.62493 14.9153C3.97007 14.9153 4.24987 14.6355 4.24987 14.2904V9.0826C4.24989 8.4389 4.62065 7.85276 5.20226 7.57693C5.2668 7.54637 5.3425 7.55099 5.40284 7.58919C5.46318 7.62739 5.49975 7.69383 5.49973 7.76525V16.9984C5.49973 17.2285 5.68626 17.415 5.91635 17.415H8.41608C8.64618 17.415 8.8327 17.2285 8.8327 16.9984V6.58287C8.8327 6.35278 8.64618 6.16625 8.41608 6.16625ZM12.999 2.0266C13.1648 2.0266 13.3161 2.12103 13.3889 2.26995L14.6388 5.60293C14.6869 5.73089 14.6692 5.87432 14.5914 5.98672C14.5136 6.09913 14.3856 6.1662 14.2489 6.1662H11.7491C11.6124 6.1662 11.4844 6.09913 11.4066 5.98672C11.3288 5.87432 11.311 5.73089 11.3592 5.60293L12.609 2.26995C12.6819 2.12103 12.8332 2.0266 12.999 2.0266ZM14.2489 19.4981H11.7491C11.519 19.4981 11.3325 19.6847 11.3325 19.9148V20.3314C11.3325 21.2518 12.0786 21.9979 12.999 21.9979C13.9194 21.9979 14.6655 21.2518 14.6655 20.3314V19.9148C14.6655 19.6847 14.4789 19.4981 14.2489 19.4981ZM5.91642 18.2482H8.41615C8.55679 18.248 8.68805 18.3188 8.76517 18.4364C8.84229 18.554 8.85487 18.7026 8.79861 18.8315L7.54875 21.7479C7.48282 21.9005 7.33251 21.9993 7.16629 21.9993C7.00006 21.9993 6.84975 21.9005 6.78383 21.7479L5.53396 18.8315C5.4777 18.7026 5.49028 18.554 5.5674 18.4364C5.64452 18.3188 5.77578 18.248 5.91642 18.2482Z" fill="black"/>
</svg>
