<svg width="24" height="24" viewBox="0 0 24 24" fill="none" xmlns="http://www.w3.org/2000/svg">
<path d="M10.3858 13.0868C11.1378 10.4684 12.9009 10.9092 13.5987 13.1305C13.8959 13.8928 14.2192 14.6373 14.5525 15.2668C15.0852 16.2726 15.8523 17.3785 16.6355 18.4029C17.5112 19.5483 16.4758 21.3702 15.0829 21.085C13.8071 20.8239 12.6214 20.6059 12.0538 20.5678C11.4834 20.5295 10.2889 20.7291 9.00583 20.9969C7.6139 21.2875 6.5285 19.4864 7.38346 18.3245C8.12541 17.3162 8.85439 16.238 9.37663 15.2668C9.72261 14.6234 10.0661 13.863 10.3858 13.0868Z" stroke="black" stroke-width="2"/>
<path d="M18.4112 7.07696C18.1787 8.36064 16.9497 9.21287 15.666 8.98046C14.3823 8.74805 13.5301 7.51901 13.7625 6.23532C13.9949 4.95164 15.3623 3.18358 16.646 3.416C17.9296 3.64841 18.6436 5.79327 18.4112 7.07696Z" stroke="black" stroke-width="2"/>
<path d="M10.4479 6.26356C10.5837 7.56103 9.64199 8.72293 8.34452 8.85875C7.04706 8.99456 5.88515 8.05285 5.74934 6.75539C5.61353 5.45792 6.25831 3.4028 7.55577 3.26698C8.85324 3.13117 10.3121 4.9661 10.4479 6.26356Z" stroke="black" stroke-width="2"/>
<path d="M6.1309 13.138C6.32239 14.4284 5.43152 15.6297 4.14109 15.8212C2.85067 16.0127 1.64934 15.1218 1.45785 13.8314C1.26637 12.541 2.04609 10.5906 3.33651 10.3991C4.62694 10.2076 5.93941 11.8475 6.1309 13.138Z" stroke="black" stroke-width="2"/>
<path d="M22.687 13.6302C22.556 14.9281 21.3977 15.8742 20.0997 15.7433C18.8017 15.6123 17.8557 14.454 17.9866 13.156C18.1175 11.858 19.3519 10.1586 20.6499 10.2895C21.9478 10.4204 22.8179 12.3322 22.687 13.6302Z" stroke="black" stroke-width="2"/>
</svg>
