<svg width="24" height="24" viewBox="0 0 24 24" fill="none" xmlns="http://www.w3.org/2000/svg">
<path fill-rule="evenodd" clip-rule="evenodd" d="M21.7461 20.5695L15.3581 14.1823C17.8432 11.0732 17.4667 6.56429 14.5003 3.91042C11.534 1.25655 7.01111 1.38219 4.19665 4.19665C1.38219 7.0111 1.25655 11.534 3.91042 14.5003C6.56429 17.4667 11.0732 17.8432 14.1823 15.3581L20.5703 21.7453C20.7791 21.9615 21.0883 22.0481 21.379 21.972C21.6697 21.8959 21.8968 21.6689 21.9729 21.3782C22.049 21.0874 21.9623 20.7783 21.7461 20.5695ZM3.69644 9.51648C3.69644 6.30171 6.30253 3.69562 9.51731 3.69562C12.7321 3.69562 15.3382 6.30171 15.3382 9.51648C15.3382 12.7313 12.7321 15.3373 9.51731 15.3373C6.30405 15.3337 3.70011 12.7297 3.69644 9.51648ZM6.60688 8.68496H12.4277C12.887 8.68496 13.2593 9.05726 13.2593 9.51652C13.2593 9.97577 12.887 10.3481 12.4277 10.3481H6.60688C6.14763 10.3481 5.77533 9.97577 5.77533 9.51652C5.77533 9.05726 6.14763 8.68496 6.60688 8.68496Z" fill="black"/>
</svg>
