<svg width="24" height="24" viewBox="0 0 24 24" fill="none" xmlns="http://www.w3.org/2000/svg">
<path fill-rule="evenodd" clip-rule="evenodd" d="M21.7565 20.5804L15.367 14.1909C17.854 11.0797 17.4773 6.56764 14.509 3.91184C11.5406 1.25604 7.01456 1.38172 4.19814 4.19814C1.38172 7.01456 1.25604 11.5406 3.91184 14.509C6.56764 17.4773 11.0797 17.854 14.1909 15.367L20.5804 21.7565C20.9076 22.0753 21.4293 22.0753 21.7565 21.7565C22.0812 21.4317 22.0812 20.9052 21.7565 20.5804ZM3.70259 9.51813C3.70259 6.3026 6.3093 3.69589 9.52483 3.69589C12.7404 3.69589 15.3471 6.3026 15.3471 9.51813C15.3471 12.7337 12.7404 15.3404 9.52483 15.3404C6.31082 15.3367 3.70626 12.7321 3.70259 9.51813ZM10.3566 8.68639H12.436C12.8953 8.68639 13.2677 9.05878 13.2677 9.51814C13.2677 9.9775 12.8953 10.3499 12.436 10.3499H10.3566V12.4293C10.3566 12.8886 9.9842 13.261 9.52484 13.261C9.06548 13.261 8.69309 12.8886 8.69309 12.4293V10.3499H6.61372C6.15436 10.3499 5.78197 9.9775 5.78197 9.51814C5.78197 9.05878 6.15436 8.68639 6.61372 8.68639H8.69309V6.60702C8.69309 6.14766 9.06548 5.77527 9.52484 5.77527C9.9842 5.77527 10.3566 6.14766 10.3566 6.60702V8.68639Z" fill="black"/>
</svg>
